<?xml version="1.0" encoding="utf-8"?>
<!-- Generator: Adobe Illustrator 24.0.0, SVG Export Plug-In . SVG Version: 6.00 Build 0)  -->
<svg version="1.1" id="Layer_1" xmlns="http://www.w3.org/2000/svg" xmlns:xlink="http://www.w3.org/1999/xlink" x="0px" y="0px"
	 viewBox="0 0 50 50" style="enable-background:new 0 0 50 50;" xml:space="preserve">
<style type="text/css">
	.st0{fill:#1B1B1B;}
	.st1{fill:#FFFFFF;}
</style>
<g>
	<path class="st0" d="M102.5,15.8c0-0.6-0.3-1.1-0.7-1.6c-1-1.1-3.2-3.7-6.3-6.7c-3.1-3.1-5.6-5.3-6.7-6.3c-0.4-0.4-1-0.6-1.6-0.7
		c-1.5-0.1-4.7-0.3-9.2-0.3s-7.8,0.2-9.2,0.3c-0.6,0-1.1,0.3-1.6,0.7c-1.1,1-3.7,3.2-6.7,6.3c-3.2,3.2-5.4,5.6-6.3,6.7
		c-0.4,0.4-0.6,1-0.6,1.6c-0.1,1.5-0.3,4.7-0.3,9.2c0,4.4,0.2,7.7,0.3,9.2c0,0.6,0.3,1.1,0.6,1.6c1,1.1,3.1,3.5,6.3,6.7
		c3.1,3.1,5.6,5.3,6.7,6.3c0.4,0.4,1,0.5,1.6,0.5c1.5,0.1,4.7,0.3,9.2,0.3c4.5,0,7.8-0.2,9.2-0.3c0.6,0,1.1-0.2,1.6-0.5
		c1.1-1,3.7-3.2,6.7-6.3c3.2-3.2,5.3-5.6,6.3-6.7c0.4-0.4,0.6-1,0.6-1.6c0.1-1.5,0.3-4.9,0.3-9.2C102.8,20.5,102.6,17.3,102.5,15.8
		 M100.5,33.6c0,0.5-0.2,1-0.5,1.3c-0.9,1-2.9,3.3-5.8,6.3c-2.9,2.9-5.2,5-6.3,5.8c-0.4,0.3-0.8,0.5-1.3,0.5
		c-1.3,0.1-4.3,0.3-8.6,0.3s-7.2-0.2-8.6-0.3c-0.5,0-1-0.2-1.3-0.5c-1-0.9-3.4-3-6.3-5.8c-3-3-5-5.3-5.8-6.3
		c-0.3-0.4-0.5-0.8-0.5-1.3c-0.1-1.4-0.3-4.5-0.3-8.6c0-4.2,0.2-7.3,0.3-8.6c0-0.5,0.2-0.9,0.5-1.3c0.9-1,2.9-3.3,5.9-6.3
		c2.9-2.9,5.2-5,6.3-5.8c0.4-0.3,0.8-0.5,1.3-0.5c1.3-0.1,4.3-0.3,8.6-0.3s7.2,0.2,8.6,0.3c0.5,0,1,0.2,1.3,0.5
		c1,0.9,3.4,2.9,6.3,5.8c2.9,2.9,5,5.2,5.8,6.3c0.3,0.4,0.5,0.8,0.5,1.3c0.1,1.3,0.3,4.3,0.3,8.6C100.8,29.2,100.6,32.3,100.5,33.6"
		/>
	<path class="st0" d="M97.8,20.4c0-1.7-0.2-3.1-0.2-3.4c-0.1-0.1-0.3-0.3-0.4-0.5c-1.4-1.6-2.9-3.2-4.8-5.1
		c-3.8-3.8-5.8-5.6-6.3-5.9c-0.4,0-1.1-0.1-2.9-0.2c-1.5-0.1-3.4-0.1-3.5-0.1c0,0.3,0,25.2,0,39.4c0,0.3,0,0.3,0,0.3s4.4,0,6.5-0.3
		c1.4-1.2,4.2-3.8,6.2-5.8c2.1-2.2,4-4.1,4.4-4.7c0.2-0.2,0.6-0.7,0.9-1c0-0.3,0.1-0.5,0.1-1c0.2-2.5,0.2-7,0.2-7.1
		c-0.2,0-6.7,0-6.9,0c0,0.1,0,3.4,0,3.5c0.1,0,3.2,0,3.3,0c0,0.1-0.1,2.8-0.2,3.3c-0.2,0.3-0.6,0.7-1.1,1.2
		c-0.5,0.5-1.2,1.3-2.6,2.7c-1.8,1.8-4.5,4.4-5.8,5.5c0-0.2,0-32,0-32.3c0.3,0.3,1.1,1,1.3,1.2c1.5,1.4,3.1,2.9,4.3,4.2
		c1.9,2,3.7,4,3.8,4.1c0,0.1,0.1,1.8,0.1,2C94.4,20.4,97.7,20.4,97.8,20.4"/>
	<path class="st0" d="M71.3,44.7c0-6.2,0-13.6,0-25c0-0.7,0-4.7,0-4.7s-0.1,0.2-0.1,0.2c-0.8,2-1.7,4.1-2.5,6.4
		c-1.1,2.9-2.1,5.8-3,8l-0.1-0.1l-2.3-4.1l-1.6-2.9c0,0,0,3.5,0,3.8c0,3.1,0.1,5.7,0.3,8.4c0,0.3,0.2,2.3,0.2,2.3
		c0,0-1.1-1.2-1.7-1.8c-1.1-1.1-1.4-1.6-1.9-2.2c-0.2-2.1-0.3-4.4-0.3-8.8c0-4.3,0.2-7,0.2-7.4c0-0.1,0,0,0.1-0.2
		c0.3-0.4,1.8-2.1,2.2-2.4c0.2-0.2,0.2-0.2,0.2-0.2s0.2,0.3,0.3,0.5c0.7,1,1.8,3,2.9,4.9c0.7,1.1,0.7,1.2,0.7,1.2s0.9-2.6,3-8
		c1.6-4.1,3.2-7.3,3.3-7.5c0.1,0,1.3-0.1,2.6-0.1c1.3-0.1,2.4,0,2.5,0c0,0.2,0,0.4,0,0.4s0,24.3,0,38.9c0,0.2,0,0.3,0,0.4
		c-0.1,0-0.3,0-0.5,0C74,44.9,71.8,44.8,71.3,44.7"/>
</g>
<g>
	<path class="st1" d="M49.5,15.8c0-0.6-0.3-1.1-0.7-1.6c-1-1.1-3.2-3.7-6.3-6.7c-3.1-3.1-5.6-5.3-6.7-6.3c-0.4-0.4-1-0.6-1.6-0.7
		c-1.5-0.1-4.7-0.3-9.2-0.3s-7.8,0.2-9.2,0.3c-0.6,0-1.1,0.3-1.6,0.7c-1.1,1-3.7,3.2-6.7,6.3c-3.2,3.2-5.4,5.6-6.3,6.7
		c-0.4,0.4-0.6,1-0.6,1.6c-0.1,1.5-0.3,4.7-0.3,9.2c0,4.4,0.2,7.7,0.3,9.2c0,0.6,0.3,1.1,0.6,1.6c1,1.1,3.1,3.5,6.3,6.7
		c3.1,3.1,5.6,5.3,6.7,6.3c0.4,0.4,1,0.5,1.6,0.5c1.5,0.1,4.7,0.3,9.2,0.3c4.5,0,7.8-0.2,9.2-0.3c0.6,0,1.1-0.2,1.6-0.5
		c1.1-1,3.7-3.2,6.7-6.3c3.2-3.2,5.3-5.6,6.3-6.7c0.4-0.4,0.6-1,0.6-1.6c0.1-1.5,0.3-4.9,0.3-9.2C49.8,20.5,49.6,17.3,49.5,15.8
		 M47.5,33.6c0,0.5-0.2,1-0.5,1.3c-0.9,1-2.9,3.3-5.8,6.3c-2.9,2.9-5.2,5-6.3,5.8c-0.4,0.3-0.8,0.5-1.3,0.5
		c-1.3,0.1-4.3,0.3-8.6,0.3s-7.2-0.2-8.6-0.3c-0.5,0-1-0.2-1.3-0.5c-1-0.9-3.4-3-6.3-5.8c-3-3-5-5.3-5.8-6.3
		c-0.3-0.4-0.5-0.8-0.5-1.3c-0.1-1.4-0.3-4.5-0.3-8.6c0-4.2,0.2-7.3,0.3-8.6c0-0.5,0.2-0.9,0.5-1.3c0.9-1,2.9-3.3,5.9-6.3
		c2.9-2.9,5.2-5,6.3-5.8c0.4-0.3,0.8-0.5,1.3-0.5c1.3-0.1,4.3-0.3,8.6-0.3s7.2,0.2,8.6,0.3c0.5,0,1,0.2,1.3,0.5
		c1,0.9,3.4,2.9,6.3,5.8c2.9,2.9,5,5.2,5.8,6.3c0.3,0.4,0.5,0.8,0.5,1.3c0.1,1.3,0.3,4.3,0.3,8.6C47.8,29.2,47.6,32.3,47.5,33.6"/>
	<path class="st1" d="M44.8,20.4c0-1.7-0.2-3.1-0.2-3.4c-0.1-0.1-0.3-0.3-0.4-0.5c-1.4-1.6-2.9-3.2-4.8-5.1
		c-3.8-3.8-5.8-5.6-6.3-5.9c-0.4,0-1.1-0.1-2.9-0.2c-1.5-0.1-3.4-0.1-3.5-0.1c0,0.3,0,25.2,0,39.4c0,0.3,0,0.3,0,0.3s4.4,0,6.5-0.3
		c1.4-1.2,4.2-3.8,6.2-5.8c2.1-2.2,4-4.1,4.4-4.7c0.2-0.2,0.6-0.7,0.9-1c0-0.3,0.1-0.5,0.1-1c0.2-2.5,0.2-7,0.2-7.1
		c-0.2,0-6.7,0-6.9,0c0,0.1,0,3.4,0,3.5c0.1,0,3.2,0,3.3,0c0,0.1-0.1,2.8-0.2,3.3c-0.2,0.3-0.6,0.7-1.1,1.2
		c-0.5,0.5-1.2,1.3-2.6,2.7c-1.8,1.8-4.5,4.4-5.8,5.5c0-0.2,0-32,0-32.3c0.3,0.3,1.1,1,1.3,1.2c1.5,1.4,3.1,2.9,4.3,4.2
		c1.9,2,3.7,4,3.8,4.1c0,0.1,0.1,1.8,0.1,2C41.4,20.4,44.7,20.4,44.8,20.4"/>
	<path class="st1" d="M18.3,44.7c0-6.2,0-13.6,0-25c0-0.7,0-4.7,0-4.7s-0.1,0.2-0.1,0.2c-0.8,2-1.7,4.1-2.5,6.4
		c-1.1,2.9-2.1,5.8-3,8l-0.1-0.1l-2.3-4.1l-1.6-2.9c0,0,0,3.5,0,3.8c0,3.1,0.1,5.7,0.3,8.4c0,0.3,0.2,2.3,0.2,2.3
		c0,0-1.1-1.2-1.7-1.8c-1.1-1.1-1.4-1.6-1.9-2.2c-0.2-2.1-0.3-4.4-0.3-8.8c0-4.3,0.2-7,0.2-7.4c0-0.1,0,0,0.1-0.2
		c0.3-0.4,1.8-2.1,2.2-2.4c0.2-0.2,0.2-0.2,0.2-0.2s0.2,0.3,0.3,0.5c0.7,1,1.8,3,2.9,4.9c0.7,1.1,0.7,1.2,0.7,1.2s0.9-2.6,3-8
		c1.6-4.1,3.2-7.3,3.3-7.5c0.1,0,1.3-0.1,2.6-0.1c1.3-0.1,2.4,0,2.5,0c0,0.2,0,0.4,0,0.4s0,24.3,0,38.9c0,0.2,0,0.3,0,0.4
		c-0.1,0-0.3,0-0.5,0C21,44.9,18.8,44.8,18.3,44.7"/>
</g>
</svg>
